/vscmnt/brussel_pixiu_data/_data_brussel/112/vsc11236/PredSimResults/SUBJ11mtu3D/weighted-LRposFixed/expIG/worker_03.mot
version=1
nRows=8
nColumns=50
inDegrees=yes
endheader
                time	         pelvis_tilt	         pelvis_list	     pelvis_rotation	           pelvis_tx	           pelvis_ty	           pelvis_tz	       hip_flexion_r	     hip_adduction_r	      hip_rotation_r	        knee_angle_r	       ankle_angle_r	         mtp_angle_r	       hip_flexion_l	     hip_adduction_l	      hip_rotation_l	        knee_angle_l	       ankle_angle_l	         mtp_angle_l	    lumbar_extension	      lumbar_bending	     lumbar_rotation	 ercspn_r/activation	 intobl_r/activation	 extobl_r/activation	    abd_r/activation	    add_r/activation	hamstrings_r/activation	bifemsh_r/activation	glut_max_r/activation	iliopsoas_r/activation	rect_fem_r/activation	  vasti_r/activation	gastroc_r/activation	 soleus_r/activation	tib_ant_r/activation	 ercspn_l/activation	 intobl_l/activation	 extobl_l/activation	    abd_l/activation	    add_l/activation	hamstrings_l/activation	bifemsh_l/activation	glut_max_l/activation	iliopsoas_l/activation	rect_fem_l/activation	  vasti_l/activation	gastroc_l/activation	 soleus_l/activation	tib_ant_l/activation	
          0.69931823	         -6.13357526	          5.06176514	         -8.16518762	          0.73428415	          0.94000215	          0.01715887	        -12.22535379	         -5.56891325	          4.51568299	         -7.01618030	         12.47750693	         26.94015580	         31.49608111	          1.41029708	         -4.45531088	         -4.17640462	          5.63515902	          0.20869275	         -4.03496209	         -3.15242215	          2.10559428	          0.03028917	          0.00999999	          0.00999999	          0.05345682	          0.02348399	          0.02722521	          0.13716807	          0.05345682	          0.44733600	          0.01000000	          0.01000000	          0.35794879	          0.26255463	          0.01149241	          0.09252112	          0.15104236	          0.02840978	          0.01233105	          0.09483573	          0.05443742	          0.21222122	          0.01195987	          0.09268475	          0.01139217	          0.00999999	          0.01709138	          0.00999999	          0.28402720	
          0.71330460	         -6.26666773	          4.90140973	         -8.21669020	          0.75221713	          0.93779193	          0.01646457	        -12.50067732	         -5.47910490	          4.13747004	         -8.27351450	         11.94831786	         28.93249824	         31.60379311	          1.43138769	         -4.48368731	         -5.73807917	          5.17593138	          0.21637842	         -3.73534282	         -3.42637447	          2.30249536	          0.06938417	          0.00999999	          0.01000000	          0.04335135	          0.04875243	          0.02207857	          0.11123785	          0.04335135	          0.45363380	          0.01000001	          0.01000001	          0.32873834	          0.24777165	          0.00999999	          0.07503095	          0.12248936	          0.02303920	          0.00999999	          0.13952679	          0.05022973	          0.17210298	          0.06127423	          0.07516365	          0.01000000	          0.00999999	          0.02312057	          0.01520550	          0.29725895	
          0.72729096	         -6.37510024	          4.73332302	         -8.21536912	          0.77057693	          0.93589942	          0.01568612	        -12.61268510	         -5.37025705	          3.73418593	         -9.90322926	         11.28961787	         31.01924712	         31.50290521	          1.43942176	         -4.48917389	         -7.25320832	          4.72043958	          0.18676738	         -3.41999849	         -3.70701483	          2.47805319	          0.08175487	          0.00999999	          0.00999999	          0.03515622	          0.03953629	          0.02123605	          0.09020948	          0.03515622	          0.44156068	          0.01000002	          0.01874998	          0.28994246	          0.22662604	          0.00999999	          0.07179641	          0.09933400	          0.01868388	          0.06275563	          0.13075467	          0.05672361	          0.13956868	          0.08287265	          0.06095473	          0.00999999	          0.00999999	          0.01874986	          0.01233106	          0.34063418	
          0.74127733	         -6.46099048	          4.55798637	         -8.16340424	          0.78905733	          0.93459083	          0.01480399	        -12.46989684	         -5.24192994	          3.31615886	        -12.00713875	         10.44060627	         33.18727955	         31.23011052	          1.45180425	         -4.51917095	         -8.49036827	          4.10906596	          0.15721485	         -3.11852559	         -3.98970094	          2.62602104	          0.11152781	          0.00999999	          0.00999999	          0.02851030	          0.04833406	          0.02216125	          0.07315630	          0.02851030	          0.42321165	          0.01000004	          0.01520549	          0.23513181	          0.18378471	          0.00999999	          0.08249332	          0.08055593	          0.01515188	          0.11572789	          0.15761185	          0.05275770	          0.11318465	          0.11150728	          0.04943186	          0.00999999	          0.00999999	          0.01520539	          0.01000000	          0.37226373	
          0.75526369	         -6.52274539	          4.38079785	         -8.06509571	          0.80740180	          0.93401732	          0.01383558	        -11.99147296	         -5.09725719	          2.87931250	        -14.69390517	          9.39759246	         35.33056071	         30.88463070	          1.47394631	         -4.58285230	         -9.65358322	          3.60560218	          0.12013638	         -2.85145798	         -4.28136739	          2.74129180	          0.13858175	          0.00999999	          0.00999999	          0.02312072	          0.06794768	          0.02232806	          0.05932685	          0.02312072	          0.38577634	          0.01000000	          0.01233105	          0.19068255	          0.14904209	          0.00999999	          0.08009706	          0.06532765	          0.01228757	          0.14249346	          0.17374877	          0.04835789	          0.09178825	          0.12469223	          0.04008727	          0.00999999	          0.03430534	          0.01233097	          0.01000000	          0.39851399	
          0.76925006	         -6.55902363	          4.20075026	         -7.92303268	          0.82546513	          0.93419208	          0.01280529	        -11.14615645	         -4.93797642	          2.41203828	        -17.98941548	          8.14722593	         37.28458437	         30.48048730	          1.50173508	         -4.66939029	        -10.76413576	          3.26693870	          0.09275792	         -2.62755983	         -4.58056709	          2.82062723	          0.14171911	          0.00999999	          0.00999999	          0.01874998	          0.08430069	          0.02879090	          0.04811173	          0.01874998	          0.33151844	          0.00999999	          0.00999999	          0.15463596	          0.12086721	          0.00999999	          0.08066413	          0.05297813	          0.00999999	          0.14869484	          0.14645284	          0.05244202	          0.07443663	          0.11766136	          0.03250919	          0.00999999	          0.08883766	          0.01000000	          0.01000000	          0.40779681	
          0.78323642	         -6.57135064	          4.00723796	         -7.74143168	          0.84315574	          0.93508939	          0.01175322	         -9.95020211	         -4.76219785	          1.90620221	        -21.83017094	          6.71298021	         38.72448601	         29.98024737	          1.52785319	         -4.74061884	        -11.73483953	          3.05699196	          0.06853516	         -2.45209569	         -4.87758237	          2.86343189	          0.15364664	          0.00999999	          0.01000000	          0.01520549	          0.09703071	          0.02334828	          0.05285198	          0.01520549	          0.26975846	          0.00999999	          0.00999999	          0.12540362	          0.09801850	          0.00999999	          0.06643955	          0.04296316	          0.00999999	          0.14521104	          0.11876743	          0.04831088	          0.06036515	          0.11426448	          0.02636366	          0.00999999	          0.14788708	          0.01000000	          0.01000000	          0.40781605	
          0.79722279	         -6.56221724	          3.79034032	         -7.52226086	          0.86042666	          0.93672018	          0.01070435	         -8.44540700	         -4.57429849	          1.35375628	        -26.11907404	          5.19470224	         39.17282915	         29.33200089	          1.55064654	         -4.75548544	        -12.46877963	          2.97734075	          0.05002821	         -2.32704643	         -5.15991888	          2.87009109	          0.16127834	          0.00999999	          0.01000000	          0.01233105	          0.10516700	          0.01893453	          0.06838503	          0.01233105	          0.21876338	          0.00999999	          0.00999999	          0.10169735	          0.07948911	          0.00999999	          0.05411738	          0.03484141	          0.00999999	          0.13529755	          0.09631567	          0.04626204	          0.04895373	          0.10753677	          0.02137988	          0.00999999	          0.18504779	          0.01000001	          0.01000001	          0.39857574	
